<?xml version="1.0" encoding="utf-8"?>
<!-- Generator: Adobe Illustrator 18.1.1, SVG Export Plug-In . SVG Version: 6.00 Build 0)  -->
<svg version="1.1" id="Layer_1" xmlns="http://www.w3.org/2000/svg" xmlns:xlink="http://www.w3.org/1999/xlink" x="0px" y="0px"
	 viewBox="0 0 210.8 210.8" enable-background="new 0 0 210.8 210.8" xml:space="preserve">
<g>
	<path fill="#FFFFFF" d="M195.8,0H15C6.7,0,0,6.7,0,15v180.8c0,8.3,6.7,15,15,15h180.8c8.3,0,15-6.7,15-15V15
		C210.8,6.7,204.1,0,195.8,0z M204.8,195.8c0,5-4,9-9,9H15c-5,0-9-4-9-9V15c0-5,4-9,9-9h180.8c5,0,9,4,9,9V195.8z"/>
	<path fill="#FFFFFF" d="M158,34.2H68c-6.3,0-11.8,2.5-15.4,6.9c-3.7,4.6-5.1,10.6-3.8,17.1l18.6,93.2H26.2c-0.4,0-0.9,0.2-1.2,0.5
		c-0.3,0.3-0.4,0.8-0.3,1.2c2.5,12.3,13.8,22.4,26.2,23.3c0.1,0,0.3,0.1,0.5,0.1h1.4h88.5h1.4c0.2,0,0.4,0,0.6-0.1
		c5.6-0.5,10.4-2.9,13.6-7c3.6-4.5,4.9-10.5,3.6-16.9L142,59.4h42.6c0.4,0,0.9-0.2,1.2-0.5c0.3-0.3,0.4-0.8,0.3-1.2
		C183.5,44.7,170.9,34.2,158,34.2z M52.8,173.6c-0.2,0-0.4,0-0.5,0h0l-0.1,0c-10.7-0.3-21.1-8.8-24-19.2h41.1h45.8
		c0.2,0.7,0.4,1.3,0.6,2c0.1,0.2,0.1,0.3,0.2,0.5c0.2,0.6,0.4,1.2,0.7,1.8c0,0.1,0,0.1,0.1,0.2c0.3,0.6,0.6,1.3,0.9,1.9
		c0.1,0.2,0.2,0.3,0.2,0.4c0.3,0.5,0.6,1.1,0.9,1.6c0.1,0.1,0.1,0.2,0.2,0.2c0.4,0.6,0.8,1.1,1.2,1.7c0.1,0.1,0.2,0.3,0.3,0.4
		c0.4,0.5,0.8,0.9,1.1,1.4c0.1,0.1,0.2,0.2,0.2,0.3c0.5,0.5,1,1,1.5,1.5c0.1,0.1,0.2,0.2,0.3,0.3c0.4,0.4,0.9,0.8,1.3,1.2
		c0.1,0.1,0.2,0.2,0.3,0.3c0.5,0.4,1.1,0.9,1.7,1.3c0.1,0.1,0.2,0.2,0.3,0.2c0.5,0.3,1,0.7,1.5,1c0.1,0.1,0.3,0.2,0.4,0.3
		c0.5,0.3,1.1,0.6,1.7,0.9H52.8z M154.6,167.6c-2.9,3.7-7.4,5.8-12.6,6c-0.3,0-0.6,0-0.9-0.1c-0.4,0-0.8,0-1.2-0.1
		c-0.3,0-0.5-0.1-0.8-0.1c-0.4-0.1-0.9-0.1-1.3-0.2c-0.2-0.1-0.5-0.1-0.7-0.2c-0.4-0.1-0.9-0.2-1.3-0.4c-0.2-0.1-0.5-0.2-0.7-0.3
		c-0.4-0.2-0.9-0.3-1.3-0.5c-0.2-0.1-0.4-0.2-0.7-0.3c-0.4-0.2-0.9-0.4-1.3-0.6c-0.2-0.1-0.4-0.2-0.6-0.4c-0.4-0.2-0.8-0.5-1.3-0.7
		c-0.2-0.1-0.4-0.3-0.6-0.4c-0.4-0.3-0.8-0.5-1.2-0.8c-0.2-0.2-0.4-0.3-0.6-0.5c-0.4-0.3-0.7-0.6-1.1-0.9c-0.2-0.2-0.4-0.4-0.6-0.6
		c-0.3-0.3-0.7-0.6-1-0.9c-0.2-0.2-0.4-0.4-0.6-0.7c-0.3-0.3-0.6-0.6-0.9-0.9c-0.2-0.3-0.4-0.5-0.6-0.8c-0.2-0.3-0.5-0.6-0.7-0.9
		c-0.2-0.3-0.4-0.6-0.6-0.9c-0.2-0.3-0.4-0.6-0.6-1c-0.2-0.3-0.4-0.6-0.5-0.9c-0.2-0.3-0.4-0.6-0.5-0.9c-0.2-0.3-0.3-0.7-0.5-1
		c-0.1-0.3-0.3-0.6-0.4-0.9c-0.1-0.3-0.2-0.7-0.4-1c-0.1-0.3-0.2-0.7-0.3-1c-0.2-0.7-0.4-1.4-0.5-2.1c-0.1-0.7-0.8-1.2-1.5-1.2H70.4
		L51.7,57.6c-1.1-5.6,0-10.8,3.2-14.6c3.1-3.7,7.7-5.8,13.1-5.8H147c-0.1,0-0.1,0.1-0.2,0.1c-0.3,0.2-0.6,0.4-0.9,0.6
		c-0.1,0.1-0.2,0.1-0.2,0.2c-0.4,0.3-0.7,0.5-1,0.8c-0.1,0.1-0.1,0.1-0.2,0.2c-0.3,0.2-0.5,0.5-0.8,0.7c-0.1,0.1-0.2,0.2-0.3,0.3
		c-0.3,0.3-0.6,0.7-0.9,1c-3.7,4.6-5.1,10.6-3.8,17.1l18.9,95C158.7,158.6,157.7,163.8,154.6,167.6z M141.5,56.4
		c0-0.2-0.1-0.3-0.1-0.5c0-0.3-0.1-0.6-0.1-0.9c0-0.4,0-0.7-0.1-1.1c0-0.3,0-0.6,0-0.9c0-0.4,0-0.7,0.1-1.1c0-0.3,0-0.6,0.1-0.8
		c0-0.4,0.1-0.7,0.2-1c0-0.3,0.1-0.5,0.2-0.8c0.1-0.3,0.2-0.7,0.3-1c0.1-0.2,0.1-0.5,0.2-0.7c0.1-0.3,0.3-0.7,0.4-1
		c0.1-0.2,0.2-0.4,0.3-0.7c0.2-0.4,0.4-0.7,0.6-1c0.1-0.2,0.2-0.4,0.3-0.5c0.3-0.5,0.7-1,1.1-1.5c3.1-3.7,7.7-5.8,13.1-5.8
		c11,0,21.7,8.5,24.7,19.2H141.5z"/>
	<path fill="#FFFFFF" d="M129,68.1c0-0.6-0.4-1-1-1H65.4c-0.6,0-1,0.4-1,1s0.4,1,1,1H128C128.6,69.1,129,68.7,129,68.1z"/>
	<path fill="#FFFFFF" d="M131,78.4c0-0.6-0.4-1-1-1H67.4c-0.6,0-1,0.4-1,1s0.4,1,1,1H130C130.6,79.4,131,78.9,131,78.4z"/>
	<path fill="#FFFFFF" d="M133.1,88.6c0-0.6-0.4-1-1-1H69.5c-0.6,0-1,0.4-1,1s0.4,1,1,1h62.6C132.6,89.6,133.1,89.2,133.1,88.6z"/>
	<path fill="#FFFFFF" d="M135.1,98.9c0-0.6-0.4-1-1-1H71.5c-0.6,0-1,0.4-1,1s0.4,1,1,1h62.6C134.7,99.9,135.1,99.4,135.1,98.9z"/>
	<path fill="#FFFFFF" d="M137.2,109.1c0-0.6-0.4-1-1-1H73.5c-0.6,0-1,0.4-1,1s0.4,1,1,1h62.6C136.7,110.1,137.2,109.7,137.2,109.1z"
		/>
	<path fill="#FFFFFF" d="M75.6,118.4c-0.6,0-1,0.4-1,1s0.4,1,1,1h62.6c0.6,0,1-0.4,1-1s-0.4-1-1-1H75.6z"/>
	<path fill="#FFFFFF" d="M76.6,129.6c0,0.6,0.4,1,1,1h62.6c0.6,0,1-0.4,1-1s-0.4-1-1-1H77.6C77.1,128.6,76.6,129.1,76.6,129.6z"/>
	<path fill="#FFFFFF" d="M78.7,139.9c0,0.6,0.4,1,1,1h62.6c0.6,0,1-0.4,1-1s-0.4-1-1-1H79.7C79.1,138.9,78.7,139.3,78.7,139.9z"/>
</g>
</svg>
