<?xml version="1.0" encoding="utf-8"?>
<!-- Generator: Adobe Illustrator 18.1.1, SVG Export Plug-In . SVG Version: 6.00 Build 0)  -->
<svg version="1.1" id="Layer_1" xmlns="http://www.w3.org/2000/svg" xmlns:xlink="http://www.w3.org/1999/xlink" x="0px" y="0px"
	 viewBox="0 0 210.8 210.8" enable-background="new 0 0 210.8 210.8" xml:space="preserve">
<g>
	<path fill="#FFFFFF" d="M195.8,0H15C6.7,0,0,6.7,0,15v180.8c0,8.3,6.7,15,15,15h180.8c8.3,0,15-6.7,15-15V15
		C210.8,6.7,204.1,0,195.8,0z M204.8,195.8c0,5-4,9-9,9H15c-5,0-9-4-9-9V15c0-5,4-9,9-9h180.8c5,0,9,4,9,9V195.8z"/>
	<path fill="#FFFFFF" d="M105.4,52.6c-47.4,0-86.3,51.4-86.7,51.9c-0.4,0.5-0.4,1.3,0,1.8c0.4,0.5,39.3,51.9,86.7,51.9
		s86.3-51.4,86.7-51.9c0.4-0.5,0.4-1.3,0-1.8C191.7,104,152.8,52.6,105.4,52.6z M105.4,155.2c-42.5,0-78.2-43-83.6-49.8
		c5.4-6.8,41.1-49.8,83.6-49.8c42.5,0,78.2,43,83.6,49.8C183.6,112.2,147.9,155.2,105.4,155.2z"/>
	<path fill="#FFFFFF" d="M105.4,64.9c-6.7,0-13.4,1.7-19.3,4.9c-0.4,0.2-0.6,0.6-0.5,1l1.5,10.8l-9.1-5c-0.4-0.2-0.9-0.1-1.2,0.2
		c-7.6,7.6-11.8,17.8-11.8,28.6c0,22.3,18.2,40.5,40.5,40.5s40.5-18.2,40.5-40.5C145.9,83.1,127.7,64.9,105.4,64.9z M105.4,143.9
		c-21.2,0-38.5-17.3-38.5-38.5c0-10,3.8-19.4,10.7-26.6l10.2,5.6c0.3,0.2,0.7,0.2,1-0.1c0.3-0.2,0.5-0.6,0.4-1l-1.6-12.1
		c5.4-2.8,11.6-4.3,17.7-4.3c21.2,0,38.5,17.3,38.5,38.5S126.6,143.9,105.4,143.9z"/>
	<path fill="#FFFFFF" d="M105.4,79.3C91,79.3,79.3,91,79.3,105.4s11.7,26.1,26.1,26.1c14.4,0,26.1-11.7,26.1-26.1
		S119.8,79.3,105.4,79.3z M105.4,129.5c-13.3,0-24.1-10.8-24.1-24.1c0-13.3,10.8-24.1,24.1-24.1c13.3,0,24.1,10.8,24.1,24.1
		C129.5,118.7,118.7,129.5,105.4,129.5z"/>
	<circle fill="#FFFFFF" cx="105.4" cy="105.4" r="13.5"/>
</g>
</svg>
