<?xml version="1.0" encoding="utf-8"?>
<!-- Generator: Adobe Illustrator 18.1.1, SVG Export Plug-In . SVG Version: 6.00 Build 0)  -->
<svg version="1.1" id="Layer_1" xmlns="http://www.w3.org/2000/svg" xmlns:xlink="http://www.w3.org/1999/xlink" x="0px" y="0px"
	 viewBox="0 0 210.8 210.8" enable-background="new 0 0 210.8 210.8" xml:space="preserve">
<g>
	<g>
		<path fill="#FFFFFF" d="M195.8,210.3H15c-8.3,0-15-6.7-15-15V14.5c0-8.3,6.7-15,15-15h180.8c8.3,0,15,6.7,15,15v180.8
			C210.8,203.6,204.1,210.3,195.8,210.3z M15,5.5c-5,0-9,4-9,9v180.8c0,5,4,9,9,9h180.8c5,0,9-4,9-9V14.5c0-5-4-9-9-9H15z"/>
	</g>
	<g>
		<path fill="#FFFFFF" d="M105.4,164c-32.6,0-59.1-26.5-59.1-59.1c0-32.6,26.5-59.1,59.1-59.1c32.6,0,59.1,26.5,59.1,59.1
			C164.5,137.5,138,164,105.4,164z M105.4,48.8c-30.9,0-56.1,25.2-56.1,56.1c0,30.9,25.2,56.1,56.1,56.1c30.9,0,56.1-25.2,56.1-56.1
			C161.5,74,136.3,48.8,105.4,48.8z"/>
	</g>
	<g>
		<path fill="#FFFFFF" d="M105.4,143.5c-21.3,0-38.6-17.3-38.6-38.6c0-18.6,13.1-34.4,31.3-37.9l6.4-12.4c0.3-0.7,1.4-0.7,1.8,0
			l6.4,12.4c18.2,3.5,31.3,19.3,31.3,37.9C144,126.2,126.7,143.5,105.4,143.5z M105.4,57.2l-5.7,11.1c-0.1,0.3-0.4,0.5-0.7,0.5
			c-17.5,3.1-30.2,18.3-30.2,36c0,20.2,16.4,36.6,36.6,36.6s36.6-16.4,36.6-36.6c0-17.8-12.7-32.9-30.2-36c-0.3-0.1-0.6-0.2-0.7-0.5
			L105.4,57.2z"/>
	</g>
	<g>
		<path fill="#FFFFFF" d="M105.4,133.5c-15.8,0-28.6-12.8-28.6-28.6s12.8-28.6,28.6-28.6S134,89.1,134,104.9
			S121.2,133.5,105.4,133.5z M105.4,78.3c-14.7,0-26.6,11.9-26.6,26.6c0,14.7,11.9,26.6,26.6,26.6c14.7,0,26.6-11.9,26.6-26.6
			C132,90.2,120.1,78.3,105.4,78.3z"/>
	</g>
</g>
</svg>
