<?xml version="1.0" encoding="utf-8"?>
<!-- Generator: Adobe Illustrator 18.1.1, SVG Export Plug-In . SVG Version: 6.00 Build 0)  -->
<svg version="1.1" id="Layer_1" xmlns="http://www.w3.org/2000/svg" xmlns:xlink="http://www.w3.org/1999/xlink" x="0px" y="0px"
	 viewBox="0 0 210.8 210.8" enable-background="new 0 0 210.8 210.8" xml:space="preserve">
<g>
	<g>
		<path fill="#FFFFFF" d="M195.8,210.8H15c-8.3,0-15-6.7-15-15V15C0,6.7,6.7,0,15,0h180.8c8.3,0,15,6.7,15,15v180.8
			C210.8,204.1,204.1,210.8,195.8,210.8z M15,6c-5,0-9,4-9,9v180.8c0,5,4,9,9,9h180.8c5,0,9-4,9-9V15c0-5-4-9-9-9H15z"/>
	</g>
	<g>
		<g>
			<g>
				<g>
					<path fill="#FFFFFF" d="M18.6,163.5c-0.3,0-0.6-0.1-0.8-0.4c-0.3-0.4-0.3-0.8,0-1.2l24.6-34.2c0.1-0.2,0.4-0.3,0.6-0.4
						l103.6-21.4c0.4-0.1,0.8,0.1,1,0.4c0.2,0.3,0.2,0.8,0,1.1l-1.8,2.5c-0.1,0.1-0.3,0.3-0.4,0.3L18.9,163.4
						C18.8,163.5,18.7,163.5,18.6,163.5z M43.8,129.2l-22.3,31l122.9-51.7l0.1-0.2L43.8,129.2z"/>
				</g>
				<g>
					<path fill="#FFFFFF" d="M43.2,129.3c-0.4,0-0.8-0.3-1-0.7c-0.2-0.5,0.1-1,0.6-1.2l126.5-53.1c0.4-0.2,0.8-0.1,1.1,0.2
						l22.6,22.3c0.3,0.3,0.4,0.6,0.3,1s-0.4,0.6-0.8,0.7l-149,30.8C43.3,129.3,43.2,129.3,43.2,129.3z M169.4,76.3L53,125.2
						l137.2-28.3L169.4,76.3z"/>
				</g>
			</g>
			<g>
				<path fill="#FFFFFF" d="M38.6,124.8c-0.4,0-0.7-0.2-0.9-0.5c-0.2-0.4-0.1-1,0.3-1.3l103.9-75.5c0.4-0.3,0.9-0.2,1.3,0.1
					l22.6,22.3c0.2,0.2,0.3,0.6,0.3,0.9s-0.3,0.6-0.6,0.7L39,124.7C38.9,124.8,38.8,124.8,38.6,124.8z M142.4,49.6l-96.2,69.9
					l117.1-49.2L142.4,49.6z"/>
			</g>
		</g>
		<g>
			<path fill="#FFFFFF" d="M18.6,163.5c-0.2,0-0.4,0-0.5-0.1c-0.4-0.3-0.6-0.8-0.4-1.3l20.1-38.7c0.1-0.2,0.3-0.4,0.5-0.5
				l126.5-53.1c0.4-0.2,0.8-0.1,1.1,0.2c0.3,0.3,0.4,0.7,0.2,1.1l-3.2,7.8c-0.1,0.2-0.3,0.4-0.5,0.5L43.8,129.1l-24.5,34
				C19.2,163.3,18.9,163.5,18.6,163.5z M39.4,124.6l-13.6,26.2l16.6-23.1c0.1-0.1,0.3-0.3,0.4-0.3l118.3-49.7l2.1-5.1L39.4,124.6z"
				/>
		</g>
	</g>
</g>
</svg>
